<mxfile host="app.diagrams.net" modified="2024-05-03T16:13:17.572Z" agent="Mozilla/5.0 (Windows NT 10.0; Win64; x64; rv:125.0) Gecko/20100101 Firefox/125.0" etag="JsERUtTu-2QPDPoHRVff" version="24.3.1" type="device">
  <diagram name="Page-1" id="WCvshVA0nSx0vb0puZCF">
    <mxGraphModel dx="1434" dy="698" grid="0" gridSize="10" guides="1" tooltips="1" connect="1" arrows="1" fold="1" page="1" pageScale="1" pageWidth="850" pageHeight="1100" math="0" shadow="0">
      <root>
        <mxCell id="0" />
        <mxCell id="1" parent="0" />
        <mxCell id="XprlTMyGNSgKxKs6jFrb-21" value="&lt;div style=&quot;font-size: 16px;&quot;&gt;Events&lt;/div&gt;&lt;div style=&quot;font-size: 16px;&quot;&gt;Core Subdomain&lt;br style=&quot;font-size: 16px;&quot;&gt;&lt;/div&gt;" style="text;html=1;strokeColor=none;fillColor=none;align=center;verticalAlign=middle;whiteSpace=wrap;rounded=0;fontSize=16;fontFamily=Roboto;fontColor=default;fontSource=https%3A%2F%2Ffonts.googleapis.com%2Fcss%3Ffamily%3DRoboto;textOpacity=50;" parent="1" vertex="1">
          <mxGeometry x="747" y="1016" width="130" height="60" as="geometry" />
        </mxCell>
        <mxCell id="XprlTMyGNSgKxKs6jFrb-22" value="&lt;div style=&quot;font-size: 16px;&quot;&gt;Invitations&lt;/div&gt;&lt;div style=&quot;font-size: 16px;&quot;&gt;Supporting Subdomain&lt;br style=&quot;font-size: 16px;&quot;&gt;&lt;/div&gt;" style="text;html=1;strokeColor=none;fillColor=none;align=center;verticalAlign=middle;whiteSpace=wrap;rounded=0;fontSize=16;fontFamily=Roboto;fontColor=default;fontSource=https%3A%2F%2Ffonts.googleapis.com%2Fcss%3Ffamily%3DRoboto;" parent="1" vertex="1">
          <mxGeometry x="408" y="992" width="171" height="82" as="geometry" />
        </mxCell>
        <mxCell id="XprlTMyGNSgKxKs6jFrb-23" value="&lt;div style=&quot;font-size: 16px;&quot;&gt;Teams&lt;/div&gt;&lt;div style=&quot;font-size: 16px;&quot;&gt;Core Subdomain&lt;br style=&quot;font-size: 16px;&quot;&gt;&lt;/div&gt;" style="text;html=1;strokeColor=none;fillColor=none;align=center;verticalAlign=middle;whiteSpace=wrap;rounded=0;fontSize=16;fontFamily=Roboto;fontColor=default;fontSource=https%3A%2F%2Ffonts.googleapis.com%2Fcss%3Ffamily%3DRoboto;" parent="1" vertex="1">
          <mxGeometry x="630" y="859" width="160" height="60" as="geometry" />
        </mxCell>
        <mxCell id="XprlTMyGNSgKxKs6jFrb-24" value="&lt;div style=&quot;font-size: 16px;&quot;&gt;User Access&lt;br style=&quot;font-size: 16px;&quot;&gt;&lt;/div&gt;&lt;div style=&quot;font-size: 16px;&quot;&gt;Generic Subdomain&lt;br style=&quot;font-size: 16px;&quot;&gt;&lt;/div&gt;" style="text;html=1;strokeColor=none;fillColor=none;align=center;verticalAlign=middle;whiteSpace=wrap;rounded=0;fontSize=16;fontFamily=Roboto;fontColor=default;fontSource=https%3A%2F%2Ffonts.googleapis.com%2Fcss%3Ffamily%3DRoboto;" parent="1" vertex="1">
          <mxGeometry x="300" y="830" width="151" height="60" as="geometry" />
        </mxCell>
        <mxCell id="XprlTMyGNSgKxKs6jFrb-27" value="" style="endArrow=none;html=1;rounded=0;labelBackgroundColor=default;strokeColor=default;align=center;verticalAlign=middle;fontFamily=Helvetica;fontSize=11;fontColor=default;shape=connector;labelPosition=center;verticalLabelPosition=middle;jumpStyle=sharp;jumpSize=0;sketch=1;curveFitting=1;jiggle=2;dashed=1;" parent="1" edge="1">
          <mxGeometry width="50" height="50" relative="1" as="geometry">
            <mxPoint x="260" y="940" as="sourcePoint" />
            <mxPoint x="440" y="760" as="targetPoint" />
            <Array as="points">
              <mxPoint x="390" y="950" />
              <mxPoint x="450" y="930" />
              <mxPoint x="480" y="890" />
              <mxPoint x="480" y="800" />
            </Array>
          </mxGeometry>
        </mxCell>
        <mxCell id="XprlTMyGNSgKxKs6jFrb-29" value="" style="endArrow=none;html=1;rounded=0;labelBackgroundColor=default;strokeColor=default;align=center;verticalAlign=middle;fontFamily=Helvetica;fontSize=11;fontColor=default;shape=connector;sketch=1;curveFitting=1;jiggle=2;dashed=1;shadow=0;" parent="1" edge="1">
          <mxGeometry width="50" height="50" relative="1" as="geometry">
            <mxPoint x="600" y="1130" as="sourcePoint" />
            <mxPoint x="370" y="1050" as="targetPoint" />
            <Array as="points">
              <mxPoint x="600" y="1130" />
              <mxPoint x="590" y="1080" />
              <mxPoint x="590" y="1000" />
              <mxPoint x="530" y="955" />
              <mxPoint x="410" y="985" />
              <mxPoint x="370" y="1050" />
            </Array>
          </mxGeometry>
        </mxCell>
        <mxCell id="XprlTMyGNSgKxKs6jFrb-30" value="" style="endArrow=none;html=1;rounded=0;labelBackgroundColor=default;strokeColor=default;align=center;verticalAlign=middle;fontFamily=Helvetica;fontSize=11;fontColor=default;shape=connector;sketch=1;curveFitting=1;jiggle=2;dashed=1;" parent="1" edge="1">
          <mxGeometry width="50" height="50" relative="1" as="geometry">
            <mxPoint x="610" y="935" as="sourcePoint" />
            <mxPoint x="610" y="935" as="targetPoint" />
            <Array as="points">
              <mxPoint x="660" y="975" />
              <mxPoint x="740" y="985" />
              <mxPoint x="800" y="965" />
              <mxPoint x="840" y="935" />
              <mxPoint x="880" y="920" />
              <mxPoint x="920" y="880" />
              <mxPoint x="890" y="790" />
              <mxPoint x="760" y="770" />
              <mxPoint x="650" y="770" />
              <mxPoint x="620" y="800" />
              <mxPoint x="610" y="830" />
              <mxPoint x="600" y="880" />
              <mxPoint x="600" y="920" />
            </Array>
          </mxGeometry>
        </mxCell>
        <mxCell id="XprlTMyGNSgKxKs6jFrb-31" value="" style="endArrow=none;html=1;rounded=0;labelBackgroundColor=default;strokeColor=default;align=center;verticalAlign=middle;fontFamily=Helvetica;fontSize=11;fontColor=default;shape=connector;sketch=1;curveFitting=1;jiggle=2;dashed=1;opacity=50;" parent="1" edge="1">
          <mxGeometry width="50" height="50" relative="1" as="geometry">
            <mxPoint x="720" y="1090" as="sourcePoint" />
            <mxPoint x="720" y="1090" as="targetPoint" />
            <Array as="points">
              <mxPoint x="770" y="1140" />
              <mxPoint x="860" y="1140" />
              <mxPoint x="900" y="1110" />
              <mxPoint x="920" y="1070" />
              <mxPoint x="920" y="1010" />
              <mxPoint x="840" y="970" />
              <mxPoint x="740" y="980" />
              <mxPoint x="720" y="1040" />
            </Array>
          </mxGeometry>
        </mxCell>
        <mxCell id="XprlTMyGNSgKxKs6jFrb-36" value="" style="endArrow=none;html=1;rounded=0;labelBackgroundColor=default;strokeColor=default;align=center;verticalAlign=middle;fontFamily=Helvetica;fontSize=11;fontColor=default;shape=connector;sketch=1;curveFitting=1;jiggle=2;" parent="1" edge="1">
          <mxGeometry width="50" height="50" relative="1" as="geometry">
            <mxPoint x="260" y="947.5" as="sourcePoint" />
            <mxPoint x="260" y="947.5" as="targetPoint" />
            <Array as="points">
              <mxPoint x="310" y="987.5" />
              <mxPoint x="400" y="1080" />
              <mxPoint x="450" y="1120" />
              <mxPoint x="720" y="1140" />
              <mxPoint x="860" y="1140" />
              <mxPoint x="900" y="1110" />
              <mxPoint x="920" y="1070" />
              <mxPoint x="920" y="880" />
              <mxPoint x="890" y="790" />
              <mxPoint x="760" y="770" />
              <mxPoint x="650" y="770" />
              <mxPoint x="400" y="760" />
              <mxPoint x="300" y="782.5" />
              <mxPoint x="280" y="790" />
              <mxPoint x="270" y="812.5" />
              <mxPoint x="260" y="842.5" />
              <mxPoint x="250" y="892.5" />
              <mxPoint x="250" y="932.5" />
            </Array>
          </mxGeometry>
        </mxCell>
        <mxCell id="XprlTMyGNSgKxKs6jFrb-38" value="" style="endArrow=none;html=1;rounded=0;labelBackgroundColor=default;strokeColor=default;align=center;verticalAlign=middle;fontFamily=Helvetica;fontSize=11;fontColor=default;shape=connector;sketch=1;curveFitting=1;jiggle=2;" parent="1" edge="1">
          <mxGeometry width="50" height="50" relative="1" as="geometry">
            <mxPoint x="564" y="980" as="sourcePoint" />
            <mxPoint x="615" y="939" as="targetPoint" />
          </mxGeometry>
        </mxCell>
        <mxCell id="XprlTMyGNSgKxKs6jFrb-39" value="" style="endArrow=none;html=1;rounded=0;labelBackgroundColor=default;strokeColor=default;align=center;verticalAlign=middle;fontFamily=Helvetica;fontSize=11;fontColor=default;shape=connector;sketch=1;curveFitting=1;jiggle=2;" parent="1" edge="1">
          <mxGeometry width="50" height="50" relative="1" as="geometry">
            <mxPoint x="446" y="976" as="sourcePoint" />
            <mxPoint x="426" y="939" as="targetPoint" />
          </mxGeometry>
        </mxCell>
        <mxCell id="XprlTMyGNSgKxKs6jFrb-40" value="" style="endArrow=none;html=1;rounded=0;labelBackgroundColor=default;strokeColor=default;align=center;verticalAlign=middle;fontFamily=Helvetica;fontSize=11;fontColor=default;shape=connector;" parent="1" edge="1">
          <mxGeometry width="50" height="50" relative="1" as="geometry">
            <mxPoint x="478" y="841" as="sourcePoint" />
            <mxPoint x="605" y="849" as="targetPoint" />
          </mxGeometry>
        </mxCell>
        <mxCell id="XprlTMyGNSgKxKs6jFrb-41" value="" style="endArrow=none;html=1;rounded=0;labelBackgroundColor=default;strokeColor=default;align=center;verticalAlign=middle;fontFamily=Helvetica;fontSize=11;fontColor=default;shape=connector;sketch=1;curveFitting=1;jiggle=2;" parent="1" edge="1">
          <mxGeometry width="50" height="50" relative="1" as="geometry">
            <mxPoint x="804" y="977" as="sourcePoint" />
            <mxPoint x="800" y="965" as="targetPoint" />
          </mxGeometry>
        </mxCell>
        <mxCell id="XprlTMyGNSgKxKs6jFrb-42" value="TeamUp Domain" style="text;html=1;strokeColor=none;fillColor=none;align=center;verticalAlign=middle;whiteSpace=wrap;rounded=0;fontSize=22;fontFamily=Roboto;fontColor=default;fontSource=https%3A%2F%2Ffonts.googleapis.com%2Fcss%3Ffamily%3DRoboto;fontStyle=1" parent="1" vertex="1">
          <mxGeometry x="469" y="701" width="213" height="69" as="geometry" />
        </mxCell>
        <mxCell id="XprlTMyGNSgKxKs6jFrb-44" value="" style="endArrow=none;html=1;rounded=0;labelBackgroundColor=default;strokeColor=default;align=center;verticalAlign=middle;fontFamily=Helvetica;fontSize=11;fontColor=default;shape=connector;strokeWidth=3;sketch=1;curveFitting=1;jiggle=2;" parent="1" edge="1">
          <mxGeometry width="50" height="50" relative="1" as="geometry">
            <mxPoint x="627" y="793" as="sourcePoint" />
            <mxPoint x="627" y="793" as="targetPoint" />
            <Array as="points">
              <mxPoint x="822" y="807" />
              <mxPoint x="892" y="849" />
              <mxPoint x="912" y="937" />
              <mxPoint x="902" y="1074" />
              <mxPoint x="814" y="1117" />
              <mxPoint x="614" y="1107" />
              <mxPoint x="532" y="1115" />
              <mxPoint x="449" y="1093" />
              <mxPoint x="374" y="1034" />
              <mxPoint x="360" y="989" />
              <mxPoint x="372" y="948" />
              <mxPoint x="436" y="924" />
              <mxPoint x="528" y="899" />
              <mxPoint x="566" y="869" />
            </Array>
          </mxGeometry>
        </mxCell>
        <mxCell id="XprlTMyGNSgKxKs6jFrb-45" value="" style="endArrow=none;html=1;rounded=0;labelBackgroundColor=default;strokeColor=default;align=center;verticalAlign=middle;fontFamily=Helvetica;fontSize=11;fontColor=default;shape=connector;strokeWidth=3;sketch=1;curveFitting=1;jiggle=2;" parent="1" edge="1">
          <mxGeometry width="50" height="50" relative="1" as="geometry">
            <mxPoint x="277" y="838" as="sourcePoint" />
            <mxPoint x="277" y="838" as="targetPoint" />
            <Array as="points">
              <mxPoint x="265" y="897" />
              <mxPoint x="283" y="943" />
              <mxPoint x="343" y="953" />
              <mxPoint x="375" y="934" />
              <mxPoint x="486" y="894" />
              <mxPoint x="501" y="833" />
              <mxPoint x="491" y="778" />
              <mxPoint x="361" y="778" />
            </Array>
          </mxGeometry>
        </mxCell>
        <mxCell id="XprlTMyGNSgKxKs6jFrb-46" value="" style="endArrow=classicThin;html=1;rounded=0;labelBackgroundColor=default;strokeColor=default;align=center;verticalAlign=middle;fontFamily=Helvetica;fontSize=11;fontColor=default;shape=connector;endSize=10;endFill=0;strokeWidth=2;sketch=1;curveFitting=1;jiggle=2;" parent="1" source="XprlTMyGNSgKxKs6jFrb-48" edge="1">
          <mxGeometry width="50" height="50" relative="1" as="geometry">
            <mxPoint x="184" y="1038" as="sourcePoint" />
            <mxPoint x="362" y="1004" as="targetPoint" />
          </mxGeometry>
        </mxCell>
        <mxCell id="XprlTMyGNSgKxKs6jFrb-47" value="" style="endArrow=classicThin;html=1;rounded=0;labelBackgroundColor=default;strokeColor=default;align=center;verticalAlign=middle;fontFamily=Helvetica;fontSize=11;fontColor=default;shape=connector;endSize=10;endFill=0;strokeWidth=2;sketch=1;curveFitting=1;jiggle=2;" parent="1" source="XprlTMyGNSgKxKs6jFrb-49" edge="1">
          <mxGeometry width="50" height="50" relative="1" as="geometry">
            <mxPoint x="191" y="830" as="sourcePoint" />
            <mxPoint x="275" y="843" as="targetPoint" />
          </mxGeometry>
        </mxCell>
        <mxCell id="XprlTMyGNSgKxKs6jFrb-48" value="Team Management&amp;nbsp; Context" style="text;html=1;strokeColor=none;fillColor=none;align=center;verticalAlign=middle;whiteSpace=wrap;rounded=0;fontSize=18;fontFamily=Roboto;fontColor=default;fontSource=https%3A%2F%2Ffonts.googleapis.com%2Fcss%3Ffamily%3DRoboto;" parent="1" vertex="1">
          <mxGeometry x="37" y="987" width="163" height="83" as="geometry" />
        </mxCell>
        <mxCell id="XprlTMyGNSgKxKs6jFrb-49" value="&lt;div&gt;User Access&lt;/div&gt;&lt;div&gt;Context&lt;br&gt;&lt;/div&gt;" style="text;html=1;strokeColor=none;fillColor=none;align=center;verticalAlign=middle;whiteSpace=wrap;rounded=0;fontSize=18;fontFamily=Roboto;fontColor=default;fontSource=https%3A%2F%2Ffonts.googleapis.com%2Fcss%3Ffamily%3DRoboto;" parent="1" vertex="1">
          <mxGeometry x="37" y="774" width="163" height="83" as="geometry" />
        </mxCell>
      </root>
    </mxGraphModel>
  </diagram>
</mxfile>
